<svg width="1920" height="1080" viewBox="0 0 1920 1080" fill="none" xmlns="http://www.w3.org/2000/svg">
<rect width="1920" height="1080" rx="20" fill="url(#paint0_linear)" fill-opacity="0.8"/>
<rect x="56" y="660" width="100" height="8" rx="4" fill="white" fill-opacity="0.6"/>
<rect x="1521" y="660" width="96" height="8" rx="4" fill="white" fill-opacity="0.6"/>
<rect x="1663" y="660" width="201" height="8" rx="4" fill="white" fill-opacity="0.6"/>
<rect x="207" y="660" width="60" height="8" rx="4" fill="white" fill-opacity="0.6"/>
<rect x="522" y="660" width="57" height="8" rx="4" fill="white" fill-opacity="0.6"/>
<rect x="629" y="660" width="52" height="8" rx="4" fill="white" fill-opacity="0.6"/>
<rect x="728" y="660" width="179" height="8" rx="4" fill="white" fill-opacity="0.6"/>
<rect x="954" y="660" width="125" height="8" rx="4" fill="white" fill-opacity="0.6"/>
<rect x="1134" y="660" width="337" height="8" rx="4" fill="white" fill-opacity="0.6"/>
<rect x="317" y="660" width="160" height="8" rx="4" fill="white" fill-opacity="0.6"/>
<circle cx="181" cy="664" r="26" stroke="#4643EF" stroke-opacity="0.8" stroke-width="8"/>
<rect x="179" y="638" width="96" height="4" transform="rotate(-90 179 638)" stroke="#4643EF" stroke-opacity="0.8" stroke-width="4"/>
<circle cx="499" cy="664" r="26" stroke="#4643EF" stroke-opacity="0.8" stroke-width="8"/>
<rect x="497" y="638" width="96" height="4" transform="rotate(-90 497 638)" stroke="#4643EF" stroke-opacity="0.8" stroke-width="4"/>
<circle cx="703" cy="664" r="26" stroke="#4643EF" stroke-opacity="0.8" stroke-width="8"/>
<rect x="701" y="638" width="96" height="4" transform="rotate(-90 701 638)" stroke="#4643EF" stroke-opacity="0.8" stroke-width="4"/>
<circle cx="1104" cy="664" r="26" stroke="#4643EF" stroke-opacity="0.8" stroke-width="8"/>
<rect x="1102" y="638" width="96" height="4" transform="rotate(-90 1102 638)" stroke="#4643EF" stroke-opacity="0.8" stroke-width="4"/>
<circle cx="1639" cy="664" r="26" stroke="#4643EF" stroke-opacity="0.8" stroke-width="8"/>
<rect x="1637" y="638" width="96" height="4" transform="rotate(-90 1637 638)" stroke="#4643EF" stroke-opacity="0.8" stroke-width="4"/>
<circle cx="605" cy="664" r="26" transform="rotate(-180 605 664)" stroke="#4643EF" stroke-opacity="0.8" stroke-width="8"/>
<rect x="607" y="690" width="96" height="4" transform="rotate(90 607 690)" stroke="#4643EF" stroke-opacity="0.8" stroke-width="4"/>
<circle cx="931" cy="664" r="26" transform="rotate(-180 931 664)" stroke="#4643EF" stroke-opacity="0.8" stroke-width="8"/>
<rect x="933" y="690" width="96" height="4" transform="rotate(90 933 690)" stroke="#4643EF" stroke-opacity="0.8" stroke-width="4"/>
<circle cx="1496" cy="664" r="26" transform="rotate(-180 1496 664)" stroke="#4643EF" stroke-opacity="0.8" stroke-width="8"/>
<rect x="1498" y="690" width="96" height="4" transform="rotate(90 1498 690)" stroke="#4643EF" stroke-opacity="0.8" stroke-width="4"/>
<circle cx="292" cy="664" r="26" transform="rotate(-180 292 664)" stroke="#4643EF" stroke-opacity="0.8" stroke-width="8"/>
<rect x="294" y="690" width="96" height="4" transform="rotate(90 294 690)" stroke="#4643EF" stroke-opacity="0.8" stroke-width="4"/>
<path d="M148.878 442.776V447H128.862V442.776H136.926V419.4L129.63 423.864L127.326 420.12L137.502 413.88H142.254V442.776H148.878ZM166.235 413.256C169.947 413.256 172.763 414.408 174.683 416.712C176.603 419.016 177.563 422.184 177.563 426.216C177.563 430.696 176.923 434.36 175.643 437.208C174.363 440.024 172.379 442.28 169.691 443.976C167.035 445.64 163.451 447.032 158.939 448.152L157.739 444.264C162.187 443.08 165.579 441.512 167.915 439.56C170.251 437.576 171.579 434.92 171.899 431.592C169.851 433.928 167.371 435.112 164.459 435.144C162.667 435.144 161.051 434.712 159.611 433.848C158.171 432.984 157.035 431.752 156.203 430.152C155.403 428.552 155.003 426.68 155.003 424.536C155.003 422.2 155.483 420.184 156.443 418.488C157.435 416.792 158.779 415.496 160.475 414.6C162.171 413.704 164.091 413.256 166.235 413.256ZM165.803 431.112C167.051 431.08 168.171 430.776 169.163 430.2C170.155 429.624 171.099 428.792 171.995 427.704C172.059 423.96 171.643 421.304 170.747 419.736C169.883 418.136 168.363 417.336 166.187 417.336C164.331 417.336 162.907 417.944 161.915 419.16C160.955 420.376 160.475 422.168 160.475 424.536C160.475 426.808 160.939 428.472 161.867 429.528C162.795 430.584 164.107 431.112 165.803 431.112ZM195.016 413.256C198.728 413.256 201.544 414.408 203.464 416.712C205.384 419.016 206.344 422.184 206.344 426.216C206.344 430.696 205.704 434.36 204.424 437.208C203.144 440.024 201.16 442.28 198.472 443.976C195.816 445.64 192.232 447.032 187.72 448.152L186.52 444.264C190.968 443.08 194.36 441.512 196.696 439.56C199.032 437.576 200.36 434.92 200.68 431.592C198.632 433.928 196.152 435.112 193.24 435.144C191.448 435.144 189.832 434.712 188.392 433.848C186.952 432.984 185.816 431.752 184.984 430.152C184.184 428.552 183.784 426.68 183.784 424.536C183.784 422.2 184.264 420.184 185.224 418.488C186.216 416.792 187.56 415.496 189.256 414.6C190.952 413.704 192.872 413.256 195.016 413.256ZM194.584 431.112C195.832 431.08 196.952 430.776 197.944 430.2C198.936 429.624 199.88 428.792 200.776 427.704C200.84 423.96 200.424 421.304 199.528 419.736C198.664 418.136 197.144 417.336 194.968 417.336C193.112 417.336 191.688 417.944 190.696 419.16C189.736 420.376 189.256 422.168 189.256 424.536C189.256 426.808 189.72 428.472 190.648 429.528C191.576 430.584 192.888 431.112 194.584 431.112ZM235.221 442.776V447H215.205V442.776H223.269V419.4L215.973 423.864L213.669 420.12L223.845 413.88H228.597V442.776H235.221ZM126.231 471.208C128.407 471.208 130.263 471.48 131.799 472.024C133.335 472.568 134.807 473.416 136.215 474.568L133.335 478.024C131.319 476.392 129.031 475.576 126.471 475.576C123.783 475.576 121.591 476.616 119.895 478.696C118.199 480.744 117.351 483.976 117.351 488.392C117.351 492.744 118.183 495.96 119.847 498.04C121.511 500.088 123.735 501.112 126.519 501.112C128.119 501.112 129.479 500.872 130.599 500.392C131.751 499.88 132.887 499.176 134.007 498.28L136.695 501.688C134.007 504.312 130.551 505.624 126.327 505.624C123.479 505.624 120.935 504.968 118.695 503.656C116.455 502.312 114.695 500.344 113.415 497.752C112.167 495.16 111.543 492.04 111.543 488.392C111.543 484.808 112.183 481.72 113.463 479.128C114.775 476.536 116.551 474.568 118.791 473.224C121.031 471.88 123.511 471.208 126.231 471.208ZM152.276 478.984C155.924 478.984 158.74 480.184 160.724 482.584C162.708 484.952 163.7 488.184 163.7 492.28C163.7 496.376 162.692 499.624 160.676 502.024C158.66 504.424 155.844 505.624 152.228 505.624C148.58 505.624 145.748 504.456 143.732 502.12C141.748 499.752 140.756 496.488 140.756 492.328C140.756 488.296 141.764 485.064 143.78 482.632C145.828 480.2 148.66 478.984 152.276 478.984ZM152.276 483.16C150.324 483.16 148.852 483.912 147.86 485.416C146.9 486.92 146.42 489.224 146.42 492.328C146.42 495.464 146.9 497.784 147.86 499.288C148.82 500.76 150.276 501.496 152.228 501.496C154.18 501.496 155.636 500.744 156.596 499.24C157.556 497.736 158.036 495.416 158.036 492.28C158.036 489.176 157.556 486.888 156.596 485.416C155.636 483.912 154.196 483.16 152.276 483.16ZM176.257 482.68C177.121 481.496 178.145 480.584 179.329 479.944C180.545 479.304 181.841 478.984 183.217 478.984C186.449 478.984 188.833 480.152 190.369 482.488C191.905 484.824 192.673 488.088 192.673 492.28C192.673 496.248 191.777 499.464 189.985 501.928C188.225 504.392 185.745 505.624 182.545 505.624C179.729 505.624 177.521 504.584 175.921 502.504L175.633 505H170.881V469.48L176.257 468.856V482.68ZM181.249 501.544C183.105 501.544 184.513 500.792 185.473 499.288C186.465 497.752 186.961 495.432 186.961 492.328C186.961 489.128 186.513 486.792 185.617 485.32C184.753 483.848 183.457 483.112 181.729 483.112C180.641 483.112 179.617 483.448 178.657 484.12C177.729 484.792 176.929 485.672 176.257 486.76V498.616C177.537 500.568 179.201 501.544 181.249 501.544ZM217.615 479.032C218.927 479.032 220.207 479.24 221.455 479.656L220.543 489.016H216.703V483.832C214.943 483.864 213.407 484.568 212.095 485.944C210.815 487.32 209.791 489.256 209.023 491.752V501.16H214.111V505H199.903V501.16H203.647V483.496H199.903V479.656H207.727L208.687 485.512C209.679 483.336 210.879 481.72 212.287 480.664C213.727 479.576 215.503 479.032 217.615 479.032ZM247.836 498.808C247.836 499.768 247.98 500.488 248.268 500.968C248.556 501.416 249.052 501.752 249.756 501.976L248.508 505.624C245.852 505.304 244.108 504.136 243.276 502.12C242.348 503.272 241.18 504.152 239.772 504.76C238.396 505.336 236.876 505.624 235.212 505.624C232.652 505.624 230.62 504.904 229.116 503.464C227.612 502.024 226.86 500.12 226.86 497.752C226.86 495.096 227.9 493.048 229.98 491.608C232.092 490.168 235.068 489.448 238.908 489.448H242.508V487.816C242.508 486.216 242.028 485.048 241.068 484.312C240.108 483.576 238.716 483.208 236.892 483.208C235.996 483.208 234.956 483.32 233.772 483.544C232.588 483.768 231.388 484.088 230.172 484.504L228.828 480.712C231.868 479.56 234.828 478.984 237.708 478.984C241.068 478.984 243.596 479.72 245.292 481.192C246.988 482.664 247.836 484.76 247.836 487.48V498.808ZM236.796 501.688C237.916 501.688 238.988 501.4 240.012 500.824C241.068 500.248 241.9 499.448 242.508 498.424V492.808H239.532C237.1 492.808 235.324 493.224 234.204 494.056C233.084 494.856 232.524 496.024 232.524 497.56C232.524 498.904 232.876 499.928 233.58 500.632C234.316 501.336 235.388 501.688 236.796 501.688Z" fill="white"/>
<path d="M471.378 442.776V447H451.362V442.776H459.426V419.4L452.13 423.864L449.826 420.12L460.002 413.88H464.754V442.776H471.378ZM488.735 413.256C492.447 413.256 495.263 414.408 497.183 416.712C499.103 419.016 500.063 422.184 500.063 426.216C500.063 430.696 499.423 434.36 498.143 437.208C496.863 440.024 494.879 442.28 492.191 443.976C489.535 445.64 485.951 447.032 481.439 448.152L480.239 444.264C484.687 443.08 488.079 441.512 490.415 439.56C492.751 437.576 494.079 434.92 494.399 431.592C492.351 433.928 489.871 435.112 486.959 435.144C485.167 435.144 483.551 434.712 482.111 433.848C480.671 432.984 479.535 431.752 478.703 430.152C477.903 428.552 477.503 426.68 477.503 424.536C477.503 422.2 477.983 420.184 478.943 418.488C479.935 416.792 481.279 415.496 482.975 414.6C484.671 413.704 486.591 413.256 488.735 413.256ZM488.303 431.112C489.551 431.08 490.671 430.776 491.663 430.2C492.655 429.624 493.599 428.792 494.495 427.704C494.559 423.96 494.143 421.304 493.247 419.736C492.383 418.136 490.863 417.336 488.687 417.336C486.831 417.336 485.407 417.944 484.415 419.16C483.455 420.376 482.975 422.168 482.975 424.536C482.975 426.808 483.439 428.472 484.367 429.528C485.295 430.584 486.607 431.112 488.303 431.112ZM517.516 413.256C521.228 413.256 524.044 414.408 525.964 416.712C527.884 419.016 528.844 422.184 528.844 426.216C528.844 430.696 528.204 434.36 526.924 437.208C525.644 440.024 523.66 442.28 520.972 443.976C518.316 445.64 514.732 447.032 510.22 448.152L509.02 444.264C513.468 443.08 516.86 441.512 519.196 439.56C521.532 437.576 522.86 434.92 523.18 431.592C521.132 433.928 518.652 435.112 515.74 435.144C513.948 435.144 512.332 434.712 510.892 433.848C509.452 432.984 508.316 431.752 507.484 430.152C506.684 428.552 506.284 426.68 506.284 424.536C506.284 422.2 506.764 420.184 507.724 418.488C508.716 416.792 510.06 415.496 511.756 414.6C513.452 413.704 515.372 413.256 517.516 413.256ZM517.084 431.112C518.332 431.08 519.452 430.776 520.444 430.2C521.436 429.624 522.38 428.792 523.276 427.704C523.34 423.96 522.924 421.304 522.028 419.736C521.164 418.136 519.644 417.336 517.468 417.336C515.612 417.336 514.188 417.944 513.196 419.16C512.236 420.376 511.756 422.168 511.756 424.536C511.756 426.808 512.22 428.472 513.148 429.528C514.076 430.584 515.388 431.112 517.084 431.112ZM557.001 421.752C557.001 423.32 556.553 424.68 555.657 425.832C554.761 426.984 553.385 428.088 551.529 429.144C553.737 430.136 555.417 431.384 556.569 432.888C557.753 434.392 558.345 436.12 558.345 438.072C558.345 439.864 557.865 441.496 556.905 442.968C555.977 444.408 554.617 445.544 552.825 446.376C551.065 447.208 548.985 447.624 546.585 447.624C544.153 447.624 542.057 447.208 540.297 446.376C538.569 445.544 537.257 444.424 536.361 443.016C535.465 441.576 535.017 439.976 535.017 438.216C535.017 434.44 537.161 431.592 541.449 429.672C539.657 428.744 538.361 427.704 537.561 426.552C536.761 425.368 536.361 423.864 536.361 422.04C536.361 420.152 536.841 418.552 537.801 417.24C538.793 415.896 540.073 414.888 541.641 414.216C543.241 413.544 544.921 413.208 546.681 413.208C548.569 413.208 550.281 413.544 551.817 414.216C553.385 414.856 554.633 415.816 555.561 417.096C556.521 418.376 557.001 419.928 557.001 421.752ZM541.545 422.088C541.545 423.144 541.785 424.008 542.265 424.68C542.745 425.352 543.417 425.912 544.281 426.36C545.145 426.776 546.345 427.256 547.881 427.8C549.289 426.936 550.297 426.072 550.905 425.208C551.513 424.344 551.817 423.288 551.817 422.04C551.817 420.536 551.369 419.352 550.473 418.488C549.577 417.592 548.313 417.144 546.681 417.144C545.049 417.144 543.785 417.576 542.889 418.44C541.993 419.304 541.545 420.52 541.545 422.088ZM552.825 438.12C552.825 436.84 552.521 435.8 551.913 435C551.305 434.168 550.473 433.496 549.417 432.984C548.393 432.472 546.889 431.864 544.905 431.16C541.993 432.664 540.537 434.952 540.537 438.024C540.537 439.752 541.049 441.112 542.073 442.104C543.129 443.064 544.649 443.544 546.633 443.544C548.617 443.544 550.137 443.048 551.193 442.056C552.281 441.032 552.825 439.72 552.825 438.12ZM410.782 471.88L417.166 483.784L423.646 471.88H429.55L420.382 487.096L430.606 505H424.414L417.07 490.936L409.678 505H403.774L413.758 487.384L404.59 471.88H410.782ZM459.147 505H454.011L453.243 488.872C453.147 486.76 453.099 484.728 453.099 482.776C453.099 480.248 453.147 478.248 453.243 476.776L448.347 499.144H443.499L438.267 476.776C438.395 478.408 438.459 480.92 438.459 484.312C438.459 486.36 438.443 487.896 438.411 488.92L437.739 505H432.747L434.619 471.88H441.291L446.043 494.056L450.555 471.88H457.275L459.147 505ZM466.088 471.88H471.608V500.344H486.488L485.864 505H466.088V471.88ZM494.821 487.768H512.197V492.184H494.821V487.768ZM544.099 481.48C544.099 483.784 543.411 485.704 542.035 487.24C540.659 488.776 538.835 489.896 536.563 490.6L545.971 505H539.491L531.139 491.368H527.539V505H521.971V471.88H531.187C539.795 471.88 544.099 475.08 544.099 481.48ZM538.291 481.48C538.291 479.56 537.731 478.168 536.611 477.304C535.523 476.44 533.827 476.008 531.523 476.008H527.539V487.288H531.667C533.843 487.288 535.491 486.824 536.611 485.896C537.731 484.968 538.291 483.496 538.291 481.48ZM573.744 482.296C573.744 486.008 572.592 488.76 570.288 490.552C567.984 492.312 564.832 493.192 560.832 493.192H556.8V505H551.28V471.88H560.448C564.704 471.88 567.984 472.76 570.288 474.52C572.592 476.248 573.744 478.84 573.744 482.296ZM567.936 482.296C567.936 478.136 565.568 476.056 560.832 476.056H556.8V488.968H560.88C563.12 488.968 564.848 488.456 566.064 487.432C567.312 486.408 567.936 484.696 567.936 482.296ZM592.637 471.208C594.813 471.208 596.669 471.48 598.205 472.024C599.741 472.568 601.213 473.416 602.621 474.568L599.741 478.024C597.725 476.392 595.437 475.576 592.877 475.576C590.189 475.576 587.997 476.616 586.301 478.696C584.605 480.744 583.757 483.976 583.757 488.392C583.757 492.744 584.589 495.96 586.253 498.04C587.917 500.088 590.141 501.112 592.925 501.112C594.525 501.112 595.885 500.872 597.005 500.392C598.157 499.88 599.293 499.176 600.413 498.28L603.101 501.688C600.413 504.312 596.957 505.624 592.733 505.624C589.885 505.624 587.341 504.968 585.101 503.656C582.861 502.312 581.101 500.344 579.821 497.752C578.573 495.16 577.949 492.04 577.949 488.392C577.949 484.808 578.589 481.72 579.869 479.128C581.181 476.536 582.957 474.568 585.197 473.224C587.437 471.88 589.917 471.208 592.637 471.208Z" fill="white"/>
<path d="M671.994 413.208C674.17 413.208 676.042 413.624 677.61 414.456C679.21 415.288 680.426 416.408 681.258 417.816C682.09 419.224 682.506 420.808 682.506 422.568C682.506 424.52 682.058 426.424 681.162 428.28C680.266 430.104 678.81 432.136 676.794 434.376C674.778 436.584 671.93 439.352 668.25 442.68H683.274L682.698 447H662.105V442.92C666.266 438.92 669.37 435.8 671.418 433.56C673.466 431.288 674.906 429.352 675.738 427.752C676.57 426.152 676.986 424.536 676.986 422.904C676.986 421.24 676.506 419.928 675.546 418.968C674.586 418.008 673.274 417.528 671.609 417.528C670.17 417.528 668.938 417.8 667.914 418.344C666.922 418.856 665.914 419.736 664.89 420.984L661.434 418.296C662.746 416.6 664.25 415.336 665.946 414.504C667.642 413.64 669.658 413.208 671.994 413.208ZM702.119 413.208C705.799 413.208 708.599 414.696 710.519 417.672C712.439 420.616 713.399 424.856 713.399 430.392C713.399 435.928 712.439 440.184 710.519 443.16C708.599 446.136 705.799 447.624 702.119 447.624C698.439 447.624 695.639 446.136 693.719 443.16C691.799 440.184 690.839 435.928 690.839 430.392C690.839 424.856 691.799 420.616 693.719 417.672C695.639 414.696 698.439 413.208 702.119 413.208ZM702.119 417.336C700.199 417.336 698.743 418.376 697.751 420.456C696.759 422.536 696.263 425.848 696.263 430.392C696.263 435 696.759 438.344 697.751 440.424C698.743 442.504 700.199 443.544 702.119 443.544C704.039 443.544 705.495 442.504 706.487 440.424C707.479 438.344 707.975 435 707.975 430.392C707.975 425.816 707.479 422.504 706.487 420.456C705.495 418.376 704.039 417.336 702.119 417.336ZM702.119 427.32C703.015 427.32 703.767 427.624 704.375 428.232C704.983 428.84 705.287 429.576 705.287 430.44C705.287 431.336 704.983 432.088 704.375 432.696C703.767 433.304 703.015 433.608 702.119 433.608C701.223 433.608 700.471 433.304 699.863 432.696C699.287 432.088 698.999 431.336 698.999 430.44C698.999 429.576 699.287 428.84 699.863 428.232C700.471 427.624 701.223 427.32 702.119 427.32ZM730.9 413.208C734.58 413.208 737.38 414.696 739.3 417.672C741.22 420.616 742.18 424.856 742.18 430.392C742.18 435.928 741.22 440.184 739.3 443.16C737.38 446.136 734.58 447.624 730.9 447.624C727.22 447.624 724.42 446.136 722.5 443.16C720.58 440.184 719.62 435.928 719.62 430.392C719.62 424.856 720.58 420.616 722.5 417.672C724.42 414.696 727.22 413.208 730.9 413.208ZM730.9 417.336C728.98 417.336 727.524 418.376 726.532 420.456C725.54 422.536 725.044 425.848 725.044 430.392C725.044 435 725.54 438.344 726.532 440.424C727.524 442.504 728.98 443.544 730.9 443.544C732.82 443.544 734.276 442.504 735.268 440.424C736.26 438.344 736.756 435 736.756 430.392C736.756 425.816 736.26 422.504 735.268 420.456C734.276 418.376 732.82 417.336 730.9 417.336ZM730.9 427.32C731.796 427.32 732.548 427.624 733.156 428.232C733.764 428.84 734.068 429.576 734.068 430.44C734.068 431.336 733.764 432.088 733.156 432.696C732.548 433.304 731.796 433.608 730.9 433.608C730.004 433.608 729.252 433.304 728.644 432.696C728.068 432.088 727.78 431.336 727.78 430.44C727.78 429.576 728.068 428.84 728.644 428.232C729.252 427.624 730.004 427.32 730.9 427.32ZM759.681 413.208C763.361 413.208 766.161 414.696 768.081 417.672C770.001 420.616 770.961 424.856 770.961 430.392C770.961 435.928 770.001 440.184 768.081 443.16C766.161 446.136 763.361 447.624 759.681 447.624C756.001 447.624 753.201 446.136 751.281 443.16C749.361 440.184 748.401 435.928 748.401 430.392C748.401 424.856 749.361 420.616 751.281 417.672C753.201 414.696 756.001 413.208 759.681 413.208ZM759.681 417.336C757.761 417.336 756.305 418.376 755.313 420.456C754.321 422.536 753.825 425.848 753.825 430.392C753.825 435 754.321 438.344 755.313 440.424C756.305 442.504 757.761 443.544 759.681 443.544C761.601 443.544 763.057 442.504 764.049 440.424C765.041 438.344 765.537 435 765.537 430.392C765.537 425.816 765.041 422.504 764.049 420.456C763.057 418.376 761.601 417.336 759.681 417.336ZM759.681 427.32C760.577 427.32 761.329 427.624 761.937 428.232C762.545 428.84 762.849 429.576 762.849 430.44C762.849 431.336 762.545 432.088 761.937 432.696C761.329 433.304 760.577 433.608 759.681 433.608C758.785 433.608 758.033 433.304 757.425 432.696C756.849 432.088 756.561 431.336 756.561 430.44C756.561 429.576 756.849 428.84 757.425 428.232C758.033 427.624 758.785 427.32 759.681 427.32ZM685.146 481.48C685.146 483.784 684.458 485.704 683.082 487.24C681.706 488.776 679.882 489.896 677.61 490.6L687.018 505H680.538L672.186 491.368H668.586V505H663.018V471.88H672.234C680.842 471.88 685.146 475.08 685.146 481.48ZM679.338 481.48C679.338 479.56 678.778 478.168 677.658 477.304C676.57 476.44 674.874 476.008 672.57 476.008H668.586V487.288H672.714C674.89 487.288 676.538 486.824 677.658 485.896C678.778 484.968 679.338 483.496 679.338 481.48ZM698.711 486.088H710.711V490.264H698.711V500.776H713.351V505H693.143V471.88H713.063L712.439 476.104H698.711V486.088ZM742.852 495.64C742.852 497.624 742.34 499.368 741.316 500.872C740.324 502.376 738.868 503.544 736.948 504.376C735.06 505.208 732.804 505.624 730.18 505.624C725.06 505.624 720.996 504.152 717.988 501.208L721.06 497.8C723.556 500.104 726.596 501.256 730.18 501.256C732.164 501.256 733.796 500.792 735.076 499.864C736.388 498.936 737.044 497.624 737.044 495.928C737.044 494.936 736.836 494.104 736.42 493.432C736.036 492.76 735.364 492.168 734.404 491.656C733.444 491.112 732.068 490.568 730.276 490.024C726.596 488.936 723.892 487.64 722.164 486.136C720.436 484.632 719.572 482.648 719.572 480.184C719.572 478.424 720.052 476.872 721.012 475.528C722.004 474.152 723.364 473.096 725.092 472.36C726.82 471.592 728.772 471.208 730.948 471.208C735.396 471.208 739.092 472.536 742.036 475.192L739.108 478.504C736.836 476.552 734.228 475.576 731.284 475.576C729.492 475.576 728.036 475.944 726.916 476.68C725.828 477.416 725.284 478.472 725.284 479.848C725.284 480.712 725.508 481.448 725.956 482.056C726.436 482.664 727.22 483.224 728.308 483.736C729.428 484.216 730.996 484.76 733.012 485.368C736.212 486.328 738.644 487.56 740.308 489.064C742.004 490.568 742.852 492.76 742.852 495.64ZM762.417 505H756.849V476.392H746.865V471.88H772.545L771.969 476.392H762.417V505Z" fill="white"/>
<path d="M1058.99 413.208C1061.17 413.208 1063.04 413.624 1064.61 414.456C1066.21 415.288 1067.43 416.408 1068.26 417.816C1069.09 419.224 1069.51 420.808 1069.51 422.568C1069.51 424.52 1069.06 426.424 1068.16 428.28C1067.27 430.104 1065.81 432.136 1063.79 434.376C1061.78 436.584 1058.93 439.352 1055.25 442.68H1070.27L1069.7 447H1049.11V442.92C1053.27 438.92 1056.37 435.8 1058.42 433.56C1060.47 431.288 1061.91 429.352 1062.74 427.752C1063.57 426.152 1063.99 424.536 1063.99 422.904C1063.99 421.24 1063.51 419.928 1062.55 418.968C1061.59 418.008 1060.27 417.528 1058.61 417.528C1057.17 417.528 1055.94 417.8 1054.91 418.344C1053.92 418.856 1052.91 419.736 1051.89 420.984L1048.43 418.296C1049.75 416.6 1051.25 415.336 1052.95 414.504C1054.64 413.64 1056.66 413.208 1058.99 413.208ZM1089.12 413.208C1092.8 413.208 1095.6 414.696 1097.52 417.672C1099.44 420.616 1100.4 424.856 1100.4 430.392C1100.4 435.928 1099.44 440.184 1097.52 443.16C1095.6 446.136 1092.8 447.624 1089.12 447.624C1085.44 447.624 1082.64 446.136 1080.72 443.16C1078.8 440.184 1077.84 435.928 1077.84 430.392C1077.84 424.856 1078.8 420.616 1080.72 417.672C1082.64 414.696 1085.44 413.208 1089.12 413.208ZM1089.12 417.336C1087.2 417.336 1085.74 418.376 1084.75 420.456C1083.76 422.536 1083.26 425.848 1083.26 430.392C1083.26 435 1083.76 438.344 1084.75 440.424C1085.74 442.504 1087.2 443.544 1089.12 443.544C1091.04 443.544 1092.49 442.504 1093.49 440.424C1094.48 438.344 1094.97 435 1094.97 430.392C1094.97 425.816 1094.48 422.504 1093.49 420.456C1092.49 418.376 1091.04 417.336 1089.12 417.336ZM1089.12 427.32C1090.01 427.32 1090.77 427.624 1091.37 428.232C1091.98 428.84 1092.29 429.576 1092.29 430.44C1092.29 431.336 1091.98 432.088 1091.37 432.696C1090.77 433.304 1090.01 433.608 1089.12 433.608C1088.22 433.608 1087.47 433.304 1086.86 432.696C1086.29 432.088 1086 431.336 1086 430.44C1086 429.576 1086.29 428.84 1086.86 428.232C1087.47 427.624 1088.22 427.32 1089.12 427.32ZM1117.9 413.208C1121.58 413.208 1124.38 414.696 1126.3 417.672C1128.22 420.616 1129.18 424.856 1129.18 430.392C1129.18 435.928 1128.22 440.184 1126.3 443.16C1124.38 446.136 1121.58 447.624 1117.9 447.624C1114.22 447.624 1111.42 446.136 1109.5 443.16C1107.58 440.184 1106.62 435.928 1106.62 430.392C1106.62 424.856 1107.58 420.616 1109.5 417.672C1111.42 414.696 1114.22 413.208 1117.9 413.208ZM1117.9 417.336C1115.98 417.336 1114.52 418.376 1113.53 420.456C1112.54 422.536 1112.04 425.848 1112.04 430.392C1112.04 435 1112.54 438.344 1113.53 440.424C1114.52 442.504 1115.98 443.544 1117.9 443.544C1119.82 443.544 1121.28 442.504 1122.27 440.424C1123.26 438.344 1123.76 435 1123.76 430.392C1123.76 425.816 1123.26 422.504 1122.27 420.456C1121.28 418.376 1119.82 417.336 1117.9 417.336ZM1117.9 427.32C1118.8 427.32 1119.55 427.624 1120.16 428.232C1120.76 428.84 1121.07 429.576 1121.07 430.44C1121.07 431.336 1120.76 432.088 1120.16 432.696C1119.55 433.304 1118.8 433.608 1117.9 433.608C1117 433.608 1116.25 433.304 1115.64 432.696C1115.07 432.088 1114.78 431.336 1114.78 430.44C1114.78 429.576 1115.07 428.84 1115.64 428.232C1116.25 427.624 1117 427.32 1117.9 427.32ZM1138.91 446.04L1151.58 418.104H1136.41V413.88H1157V417.72L1143.95 447.576L1138.91 446.04ZM1058.52 488.44C1058.52 493.688 1057.43 497.864 1055.26 500.968C1053.11 504.072 1050.01 505.624 1045.95 505.624C1041.88 505.624 1038.76 504.104 1036.59 501.064C1034.44 497.992 1033.37 493.8 1033.37 488.488C1033.37 483.24 1034.44 479.048 1036.59 475.912C1038.76 472.776 1041.88 471.208 1045.95 471.208C1050.01 471.208 1053.11 472.76 1055.26 475.864C1057.43 478.936 1058.52 483.128 1058.52 488.44ZM1052.81 488.44C1052.81 484.088 1052.27 480.856 1051.18 478.744C1050.09 476.632 1048.35 475.576 1045.95 475.576C1043.55 475.576 1041.8 476.632 1040.71 478.744C1039.63 480.856 1039.08 484.104 1039.08 488.488C1039.08 492.808 1039.63 496.024 1040.71 498.136C1041.83 500.248 1043.58 501.304 1045.95 501.304C1048.35 501.304 1050.09 500.248 1051.18 498.136C1052.27 496.024 1052.81 492.792 1052.81 488.44ZM1087.26 488.248C1087.26 494.52 1085.8 498.888 1082.89 501.352C1079.98 503.784 1076.3 505 1071.85 505H1063.74V471.88H1071.32C1076.12 471.88 1079.98 473.048 1082.89 475.384C1085.8 477.688 1087.26 481.976 1087.26 488.248ZM1081.4 488.248C1081.4 483.512 1080.57 480.312 1078.9 478.648C1077.27 476.984 1075.1 476.152 1072.38 476.152H1069.3V500.776H1072.42C1078.41 500.776 1081.4 496.6 1081.4 488.248ZM1097.51 497.032L1095.21 505H1089.49L1100.05 471.88H1106.97L1117.53 505H1111.62L1109.32 497.032H1097.51ZM1108.17 492.712L1103.41 476.2L1098.66 492.712H1108.17ZM1135.03 505H1129.46V476.392H1119.47V471.88H1145.15L1144.58 476.392H1135.03V505ZM1155.07 497.032L1152.77 505H1147.06L1157.62 471.88H1164.53L1175.09 505H1169.18L1166.88 497.032H1155.07ZM1165.73 492.712L1160.98 476.2L1156.22 492.712H1165.73Z" fill="white"/>
<path d="M1609.99 413.208C1612.17 413.208 1614.04 413.624 1615.61 414.456C1617.21 415.288 1618.43 416.408 1619.26 417.816C1620.09 419.224 1620.51 420.808 1620.51 422.568C1620.51 424.52 1620.06 426.424 1619.16 428.28C1618.27 430.104 1616.81 432.136 1614.79 434.376C1612.78 436.584 1609.93 439.352 1606.25 442.68H1621.27L1620.7 447H1600.11V442.92C1604.27 438.92 1607.37 435.8 1609.42 433.56C1611.47 431.288 1612.91 429.352 1613.74 427.752C1614.57 426.152 1614.99 424.536 1614.99 422.904C1614.99 421.24 1614.51 419.928 1613.55 418.968C1612.59 418.008 1611.27 417.528 1609.61 417.528C1608.17 417.528 1606.94 417.8 1605.91 418.344C1604.92 418.856 1603.91 419.736 1602.89 420.984L1599.43 418.296C1600.75 416.6 1602.25 415.336 1603.95 414.504C1605.64 413.64 1607.66 413.208 1609.99 413.208ZM1640.12 413.208C1643.8 413.208 1646.6 414.696 1648.52 417.672C1650.44 420.616 1651.4 424.856 1651.4 430.392C1651.4 435.928 1650.44 440.184 1648.52 443.16C1646.6 446.136 1643.8 447.624 1640.12 447.624C1636.44 447.624 1633.64 446.136 1631.72 443.16C1629.8 440.184 1628.84 435.928 1628.84 430.392C1628.84 424.856 1629.8 420.616 1631.72 417.672C1633.64 414.696 1636.44 413.208 1640.12 413.208ZM1640.12 417.336C1638.2 417.336 1636.74 418.376 1635.75 420.456C1634.76 422.536 1634.26 425.848 1634.26 430.392C1634.26 435 1634.76 438.344 1635.75 440.424C1636.74 442.504 1638.2 443.544 1640.12 443.544C1642.04 443.544 1643.49 442.504 1644.49 440.424C1645.48 438.344 1645.97 435 1645.97 430.392C1645.97 425.816 1645.48 422.504 1644.49 420.456C1643.49 418.376 1642.04 417.336 1640.12 417.336ZM1640.12 427.32C1641.01 427.32 1641.77 427.624 1642.37 428.232C1642.98 428.84 1643.29 429.576 1643.29 430.44C1643.29 431.336 1642.98 432.088 1642.37 432.696C1641.77 433.304 1641.01 433.608 1640.12 433.608C1639.22 433.608 1638.47 433.304 1637.86 432.696C1637.29 432.088 1637 431.336 1637 430.44C1637 429.576 1637.29 428.84 1637.86 428.232C1638.47 427.624 1639.22 427.32 1640.12 427.32ZM1679.94 442.776V447H1659.92V442.776H1667.99V419.4L1660.69 423.864L1658.39 420.12L1668.56 413.88H1673.32V442.776H1679.94ZM1699.65 425.208C1701.41 425.208 1702.99 425.608 1704.4 426.408C1705.81 427.208 1706.93 428.408 1707.76 430.008C1708.59 431.608 1709.01 433.544 1709.01 435.816C1709.01 438.152 1708.53 440.216 1707.57 442.008C1706.64 443.8 1705.35 445.192 1703.68 446.184C1702.05 447.144 1700.18 447.624 1698.07 447.624C1694.1 447.624 1691.19 446.2 1689.33 443.352C1687.47 440.472 1686.55 436.552 1686.55 431.592C1686.55 427.912 1687.06 424.696 1688.08 421.944C1689.14 419.16 1690.66 417.016 1692.64 415.512C1694.63 413.976 1696.96 413.208 1699.65 413.208C1702.18 413.208 1704.45 413.88 1706.47 415.224L1704.4 418.68C1702.93 417.752 1701.35 417.288 1699.65 417.288C1697.41 417.288 1695.62 418.344 1694.27 420.456C1692.93 422.536 1692.19 425.416 1692.07 429.096C1694.02 426.504 1696.55 425.208 1699.65 425.208ZM1698.11 443.544C1699.91 443.544 1701.27 442.872 1702.19 441.528C1703.12 440.184 1703.59 438.36 1703.59 436.056C1703.59 431.48 1701.91 429.192 1698.55 429.192C1697.27 429.192 1696.07 429.544 1694.95 430.248C1693.86 430.92 1692.91 431.864 1692.11 433.08C1692.18 436.696 1692.67 439.352 1693.6 441.048C1694.53 442.712 1696.03 443.544 1698.11 443.544ZM1623.96 480.904C1623.03 481.224 1621.98 481.448 1620.79 481.576C1619.64 481.672 1618.25 481.72 1616.62 481.72C1618.15 482.424 1619.31 483.304 1620.07 484.36C1620.84 485.416 1621.23 486.696 1621.23 488.2C1621.23 489.864 1620.81 491.336 1619.98 492.616C1619.18 493.896 1618.03 494.904 1616.52 495.64C1615.02 496.376 1613.24 496.744 1611.19 496.744C1609.75 496.744 1608.6 496.6 1607.74 496.312C1607.39 496.568 1607.11 496.888 1606.92 497.272C1606.73 497.624 1606.63 498.008 1606.63 498.424C1606.63 499.704 1607.67 500.344 1609.75 500.344H1614.17C1615.96 500.344 1617.56 500.648 1618.97 501.256C1620.38 501.864 1621.47 502.712 1622.23 503.8C1623.03 504.856 1623.43 506.056 1623.43 507.4C1623.43 509.928 1622.35 511.88 1620.17 513.256C1617.99 514.664 1614.86 515.368 1610.76 515.368C1607.91 515.368 1605.66 515.064 1603.99 514.456C1602.36 513.88 1601.19 513.016 1600.49 511.864C1599.82 510.744 1599.48 509.288 1599.48 507.496H1604.28C1604.28 508.456 1604.46 509.208 1604.81 509.752C1605.19 510.328 1605.85 510.744 1606.78 511C1607.71 511.288 1609.05 511.432 1610.81 511.432C1613.37 511.432 1615.21 511.112 1616.33 510.472C1617.45 509.864 1618.01 508.952 1618.01 507.736C1618.01 506.712 1617.56 505.912 1616.67 505.336C1615.8 504.792 1614.62 504.52 1613.11 504.52H1608.75C1606.47 504.52 1604.75 504.056 1603.56 503.128C1602.41 502.2 1601.83 501.032 1601.83 499.624C1601.83 498.76 1602.07 497.928 1602.55 497.128C1603.03 496.328 1603.72 495.64 1604.62 495.064C1603.11 494.264 1602.01 493.304 1601.31 492.184C1600.63 491.032 1600.3 489.624 1600.3 487.96C1600.3 486.2 1600.75 484.648 1601.64 483.304C1602.54 481.928 1603.79 480.872 1605.39 480.136C1606.99 479.368 1608.81 478.984 1610.86 478.984C1613.61 479.016 1615.79 478.824 1617.39 478.408C1619.02 477.992 1620.75 477.336 1622.57 476.44L1623.96 480.904ZM1610.91 482.728C1609.21 482.728 1607.93 483.208 1607.07 484.168C1606.2 485.096 1605.77 486.36 1605.77 487.96C1605.77 489.592 1606.2 490.888 1607.07 491.848C1607.96 492.776 1609.26 493.24 1610.95 493.24C1612.55 493.24 1613.77 492.776 1614.6 491.848C1615.43 490.92 1615.85 489.592 1615.85 487.864C1615.85 484.44 1614.2 482.728 1610.91 482.728ZM1651.93 481.48C1651.93 483.784 1651.24 485.704 1649.86 487.24C1648.49 488.776 1646.66 489.896 1644.39 490.6L1653.8 505H1647.32L1638.97 491.368H1635.37V505H1629.8V471.88H1639.01C1647.62 471.88 1651.93 475.08 1651.93 481.48ZM1646.12 481.48C1646.12 479.56 1645.56 478.168 1644.44 477.304C1643.35 476.44 1641.65 476.008 1639.35 476.008H1635.37V487.288H1639.49C1641.67 487.288 1643.32 486.824 1644.44 485.896C1645.56 484.968 1646.12 483.496 1646.12 481.48ZM1681.57 482.296C1681.57 486.008 1680.42 488.76 1678.12 490.552C1675.81 492.312 1672.66 493.192 1668.66 493.192H1664.63V505H1659.11V471.88H1668.28C1672.53 471.88 1675.81 472.76 1678.12 474.52C1680.42 476.248 1681.57 478.84 1681.57 482.296ZM1675.76 482.296C1675.76 478.136 1673.4 476.056 1668.66 476.056H1664.63V488.968H1668.71C1670.95 488.968 1672.68 488.456 1673.89 487.432C1675.14 486.408 1675.76 484.696 1675.76 482.296ZM1700.47 471.208C1702.64 471.208 1704.5 471.48 1706.03 472.024C1707.57 472.568 1709.04 473.416 1710.45 474.568L1707.57 478.024C1705.55 476.392 1703.27 475.576 1700.71 475.576C1698.02 475.576 1695.83 476.616 1694.13 478.696C1692.43 480.744 1691.59 483.976 1691.59 488.392C1691.59 492.744 1692.42 495.96 1694.08 498.04C1695.75 500.088 1697.97 501.112 1700.75 501.112C1702.35 501.112 1703.71 500.872 1704.83 500.392C1705.99 499.88 1707.12 499.176 1708.24 498.28L1710.93 501.688C1708.24 504.312 1704.79 505.624 1700.56 505.624C1697.71 505.624 1695.17 504.968 1692.93 503.656C1690.69 502.312 1688.93 500.344 1687.65 497.752C1686.4 495.16 1685.78 492.04 1685.78 488.392C1685.78 484.808 1686.42 481.72 1687.7 479.128C1689.01 476.536 1690.79 474.568 1693.03 473.224C1695.27 471.88 1697.75 471.208 1700.47 471.208Z" fill="white"/>
<path d="M259.378 838.776V843H239.362V838.776H247.426V815.4L240.13 819.864L237.826 816.12L248.002 809.88H252.754V838.776H259.378ZM276.735 809.256C280.447 809.256 283.263 810.408 285.183 812.712C287.103 815.016 288.063 818.184 288.063 822.216C288.063 826.696 287.423 830.36 286.143 833.208C284.863 836.024 282.879 838.28 280.191 839.976C277.535 841.64 273.951 843.032 269.439 844.152L268.239 840.264C272.687 839.08 276.079 837.512 278.415 835.56C280.751 833.576 282.079 830.92 282.399 827.592C280.351 829.928 277.871 831.112 274.959 831.144C273.167 831.144 271.551 830.712 270.111 829.848C268.671 828.984 267.535 827.752 266.703 826.152C265.903 824.552 265.503 822.68 265.503 820.536C265.503 818.2 265.983 816.184 266.943 814.488C267.935 812.792 269.279 811.496 270.975 810.6C272.671 809.704 274.591 809.256 276.735 809.256ZM276.303 827.112C277.551 827.08 278.671 826.776 279.663 826.2C280.655 825.624 281.599 824.792 282.495 823.704C282.559 819.96 282.143 817.304 281.247 815.736C280.383 814.136 278.863 813.336 276.687 813.336C274.831 813.336 273.407 813.944 272.415 815.16C271.455 816.376 270.975 818.168 270.975 820.536C270.975 822.808 271.439 824.472 272.367 825.528C273.295 826.584 274.607 827.112 276.303 827.112ZM305.516 809.256C309.228 809.256 312.044 810.408 313.964 812.712C315.884 815.016 316.844 818.184 316.844 822.216C316.844 826.696 316.204 830.36 314.924 833.208C313.644 836.024 311.66 838.28 308.972 839.976C306.316 841.64 302.732 843.032 298.22 844.152L297.02 840.264C301.468 839.08 304.86 837.512 307.196 835.56C309.532 833.576 310.86 830.92 311.18 827.592C309.132 829.928 306.652 831.112 303.74 831.144C301.948 831.144 300.332 830.712 298.892 829.848C297.452 828.984 296.316 827.752 295.484 826.152C294.684 824.552 294.284 822.68 294.284 820.536C294.284 818.2 294.764 816.184 295.724 814.488C296.716 812.792 298.06 811.496 299.756 810.6C301.452 809.704 303.372 809.256 305.516 809.256ZM305.084 827.112C306.332 827.08 307.452 826.776 308.444 826.2C309.436 825.624 310.38 824.792 311.276 823.704C311.34 819.96 310.924 817.304 310.028 815.736C309.164 814.136 307.644 813.336 305.468 813.336C303.612 813.336 302.188 813.944 301.196 815.16C300.236 816.376 299.756 818.168 299.756 820.536C299.756 822.808 300.22 824.472 301.148 825.528C302.076 826.584 303.388 827.112 305.084 827.112ZM333.241 809.208C335.385 809.208 337.257 809.592 338.857 810.36C340.457 811.096 341.689 812.104 342.553 813.384C343.417 814.664 343.849 816.072 343.849 817.608C343.849 819.592 343.225 821.272 341.977 822.648C340.761 824.024 339.193 824.936 337.273 825.384C339.513 825.608 341.337 826.408 342.745 827.784C344.185 829.16 344.905 831.08 344.905 833.544C344.905 835.432 344.409 837.144 343.417 838.68C342.425 840.216 341.017 841.432 339.193 842.328C337.369 843.192 335.273 843.624 332.905 843.624C330.761 843.624 328.745 843.24 326.857 842.472C324.969 841.672 323.401 840.52 322.153 839.016L325.465 836.136C326.361 837.224 327.433 838.04 328.681 838.584C329.929 839.128 331.241 839.4 332.617 839.4C334.697 839.4 336.329 838.856 337.513 837.768C338.729 836.68 339.337 835.208 339.337 833.352C339.337 829.48 337.193 827.544 332.905 827.544H330.073L330.697 823.608H332.713C334.377 823.608 335.753 823.16 336.841 822.264C337.961 821.368 338.521 820.072 338.521 818.376C338.521 816.808 337.993 815.592 336.937 814.728C335.881 813.832 334.505 813.384 332.809 813.384C331.465 813.384 330.249 813.624 329.161 814.104C328.073 814.584 327.001 815.336 325.945 816.36L323.113 813.288C325.929 810.568 329.305 809.208 333.241 809.208ZM274.536 877.48C274.536 879.784 273.848 881.704 272.472 883.24C271.096 884.776 269.272 885.896 267 886.6L276.408 901H269.928L261.576 887.368H257.976V901H252.408V867.88H261.624C270.232 867.88 274.536 871.08 274.536 877.48ZM268.728 877.48C268.728 875.56 268.168 874.168 267.048 873.304C265.96 872.44 264.264 872.008 261.96 872.008H257.976V883.288H262.104C264.28 883.288 265.928 882.824 267.048 881.896C268.168 880.968 268.728 879.496 268.728 877.48ZM304.037 884.248C304.037 890.52 302.581 894.888 299.669 897.352C296.757 899.784 293.077 901 288.629 901H280.517V867.88H288.101C292.901 867.88 296.757 869.048 299.669 871.384C302.581 873.688 304.037 877.976 304.037 884.248ZM298.181 884.248C298.181 879.512 297.349 876.312 295.685 874.648C294.053 872.984 291.877 872.152 289.157 872.152H286.085V896.776H289.205C295.189 896.776 298.181 892.6 298.181 884.248ZM314.291 893.032L311.987 901H306.275L316.835 867.88H323.747L334.307 901H328.403L326.099 893.032H314.291ZM324.947 888.712L320.195 872.2L315.443 888.712H324.947Z" fill="white"/>
<path d="M147.858 150.4L145.554 160H134.546L148.114 115.648H160.85L174.418 160H163.154L160.85 150.4H147.858ZM159.122 142.848L154.322 123.2L149.522 142.848H159.122ZM209.529 129.152C209.529 132.139 208.718 134.656 207.097 136.704C205.518 138.709 203.385 140.245 200.697 141.312L212.281 160H200.377L190.777 143.04H187.833V160H177.337V115.648H191.289C197.39 115.648 201.956 116.757 204.985 118.976C208.014 121.195 209.529 124.587 209.529 129.152ZM198.713 129.152C198.713 127.019 198.094 125.461 196.857 124.48C195.662 123.499 193.806 123.008 191.289 123.008H187.833V135.808H191.737C194.041 135.808 195.769 135.275 196.921 134.208C198.116 133.141 198.713 131.456 198.713 129.152ZM234.912 114.496C237.984 114.496 240.629 114.901 242.848 115.712C245.067 116.523 247.157 117.739 249.12 119.36L244 125.568C241.312 123.392 238.368 122.304 235.168 122.304C232.139 122.304 229.685 123.584 227.808 126.144C225.973 128.704 225.056 132.565 225.056 137.728C225.056 142.891 225.973 146.731 227.808 149.248C229.643 151.723 232.16 152.96 235.36 152.96C237.323 152.96 239.008 152.619 240.416 151.936C241.824 151.253 243.339 150.272 244.96 148.992L249.696 155.072C245.771 159.083 240.8 161.088 234.784 161.088C230.731 161.088 227.147 160.192 224.032 158.4C220.96 156.608 218.549 153.963 216.8 150.464C215.051 146.923 214.176 142.677 214.176 137.728C214.176 132.907 215.072 128.747 216.864 125.248C218.656 121.749 221.131 119.083 224.288 117.248C227.445 115.413 230.987 114.496 234.912 114.496ZM274.951 141.312H264.199V160H253.703V115.648H264.199V132.672H274.951V115.648H285.447V160H274.951V141.312ZM322.35 123.328H313.198V152.256H322.35V160H293.55V152.256H302.702V123.328H293.55V115.648H322.35V123.328ZM351.509 160H341.013V123.712H328.533V115.648H364.437L363.413 123.712H351.509V160ZM381.948 133.824H397.308V141.12H381.948V152.448H400.444V160H371.452V115.648H400.444L399.356 123.136H381.948V133.824ZM426.787 114.496C429.859 114.496 432.504 114.901 434.723 115.712C436.942 116.523 439.032 117.739 440.995 119.36L435.875 125.568C433.187 123.392 430.243 122.304 427.043 122.304C424.014 122.304 421.56 123.584 419.683 126.144C417.848 128.704 416.931 132.565 416.931 137.728C416.931 142.891 417.848 146.731 419.683 149.248C421.518 151.723 424.035 152.96 427.235 152.96C429.198 152.96 430.883 152.619 432.291 151.936C433.699 151.253 435.214 150.272 436.835 148.992L441.571 155.072C437.646 159.083 432.675 161.088 426.659 161.088C422.606 161.088 419.022 160.192 415.907 158.4C412.835 156.608 410.424 153.963 408.675 150.464C406.926 146.923 406.051 142.677 406.051 137.728C406.051 132.907 406.947 128.747 408.739 125.248C410.531 121.749 413.006 119.083 416.163 117.248C419.32 115.413 422.862 114.496 426.787 114.496ZM466.634 160H456.138V123.712H443.658V115.648H479.562L478.538 123.712H466.634V160ZM516.337 145.152C516.337 148.224 515.718 150.976 514.481 153.408C513.244 155.797 511.388 157.675 508.913 159.04C506.438 160.405 503.409 161.088 499.825 161.088C494.449 161.088 490.353 159.659 487.537 156.8C484.721 153.941 483.313 150.059 483.313 145.152V115.648H493.873V141.248C493.873 144.107 494.022 146.389 494.321 148.096C494.62 149.803 495.196 151.104 496.049 152C496.945 152.853 498.204 153.28 499.825 153.28C501.446 153.28 502.684 152.853 503.537 152C504.433 151.104 505.03 149.803 505.329 148.096C505.628 146.389 505.777 144.107 505.777 141.248V115.648H516.337V145.152ZM554.904 129.152C554.904 132.139 554.093 134.656 552.472 136.704C550.893 138.709 548.76 140.245 546.072 141.312L557.656 160H545.752L536.152 143.04H533.208V160H522.712V115.648H536.664C542.765 115.648 547.331 116.757 550.36 118.976C553.389 121.195 554.904 124.587 554.904 129.152ZM544.088 129.152C544.088 127.019 543.469 125.461 542.232 124.48C541.037 123.499 539.181 123.008 536.664 123.008H533.208V135.808H537.112C539.416 135.808 541.144 135.275 542.296 134.208C543.491 133.141 544.088 131.456 544.088 129.152ZM569.983 150.4L567.679 160H556.671L570.239 115.648H582.975L596.543 160H585.279L582.975 150.4H569.983ZM581.247 142.848L576.447 123.2L571.647 142.848H581.247ZM601.702 115.648H612.198V151.68H631.398L630.374 160H601.702V115.648ZM708.852 147.008C708.852 149.781 708.127 152.235 706.676 154.368C705.225 156.501 703.135 158.165 700.404 159.36C697.716 160.512 694.516 161.088 690.804 161.088C683.465 161.088 677.62 158.955 673.268 154.688L678.58 148.8C681.951 151.787 685.94 153.28 690.548 153.28C692.767 153.28 694.537 152.811 695.86 151.872C697.225 150.891 697.908 149.547 697.908 147.84C697.908 146.219 697.332 144.96 696.18 144.064C695.071 143.125 692.98 142.187 689.908 141.248C684.703 139.669 681.012 137.813 678.836 135.68C676.66 133.547 675.572 130.795 675.572 127.424C675.572 124.779 676.297 122.475 677.748 120.512C679.241 118.549 681.247 117.056 683.764 116.032C686.324 115.008 689.161 114.496 692.276 114.496C698.804 114.496 704.095 116.416 708.148 120.256L703.22 125.952C701.727 124.715 700.105 123.797 698.356 123.2C696.649 122.56 694.879 122.24 693.044 122.24C690.996 122.24 689.375 122.624 688.18 123.392C687.028 124.117 686.452 125.184 686.452 126.592C686.452 127.531 686.708 128.32 687.22 128.96C687.775 129.6 688.671 130.197 689.908 130.752C691.145 131.307 693.001 131.968 695.476 132.736C699.999 134.101 703.348 135.872 705.524 138.048C707.743 140.181 708.852 143.168 708.852 147.008ZM735.259 160H724.763V123.712H712.283V115.648H748.187L747.163 123.712H735.259V160ZM773.698 160H763.202V143.424L748.738 115.648H760.258L768.642 134.72L777.09 115.648H788.162L773.698 143.36V160ZM793.577 115.648H804.073V151.68H823.273L822.249 160H793.577V115.648ZM842.448 133.824H857.808V141.12H842.448V152.448H860.944V160H831.952V115.648H860.944L859.856 123.136H842.448V133.824ZM927.134 160H916.638V123.712H904.158V115.648H940.062L939.038 123.712H927.134V160ZM974.725 123.328H965.573V152.256H974.725V160H945.925V152.256H955.077V123.328H945.925V115.648H974.725V123.328ZM1016.81 160H1007.6L1007.08 140.992C1007.04 140.053 1007.02 138.773 1007.02 137.152C1007.02 135.019 1007.08 132.949 1007.21 130.944C1007.34 128.896 1007.49 126.763 1007.66 124.544L1002.67 152.448H994.732L989.292 124.544C989.761 129.451 989.996 133.867 989.996 137.792L989.932 141.184L989.612 160H980.588L983.084 115.648H993.9L998.828 144.32L1003.5 115.648H1014.32L1016.81 160ZM1034.32 133.824H1049.68V141.12H1034.32V152.448H1052.82V160H1023.83V115.648H1052.82L1051.73 123.136H1034.32V133.824ZM1062.2 115.648H1072.7V151.68H1091.9L1090.87 160H1062.2V115.648ZM1128.23 123.328H1119.07V152.256H1128.23V160H1099.43V152.256H1108.58V123.328H1099.43V115.648H1128.23V123.328ZM1143.69 124.352C1144.11 127.595 1144.48 130.731 1144.78 133.76C1145.07 136.747 1145.22 139.925 1145.22 143.296V160H1136.33V115.648H1149.45L1160.71 151.168C1159.69 144.597 1159.18 138.411 1159.18 132.608V115.648H1168.07V160H1155.34L1143.69 124.352ZM1187.82 133.824H1203.18V141.12H1187.82V152.448H1206.32V160H1177.33V115.648H1206.32L1205.23 123.136H1187.82V133.824Z" fill="white"/>
<path d="M572.378 838.776V843H552.362V838.776H560.426V815.4L553.13 819.864L550.826 816.12L561.002 809.88H565.754V838.776H572.378ZM589.735 809.256C593.447 809.256 596.263 810.408 598.183 812.712C600.103 815.016 601.063 818.184 601.063 822.216C601.063 826.696 600.423 830.36 599.143 833.208C597.863 836.024 595.879 838.28 593.191 839.976C590.535 841.64 586.951 843.032 582.439 844.152L581.239 840.264C585.687 839.08 589.079 837.512 591.415 835.56C593.751 833.576 595.079 830.92 595.399 827.592C593.351 829.928 590.871 831.112 587.959 831.144C586.167 831.144 584.551 830.712 583.111 829.848C581.671 828.984 580.535 827.752 579.703 826.152C578.903 824.552 578.503 822.68 578.503 820.536C578.503 818.2 578.983 816.184 579.943 814.488C580.935 812.792 582.279 811.496 583.975 810.6C585.671 809.704 587.591 809.256 589.735 809.256ZM589.303 827.112C590.551 827.08 591.671 826.776 592.663 826.2C593.655 825.624 594.599 824.792 595.495 823.704C595.559 819.96 595.143 817.304 594.247 815.736C593.383 814.136 591.863 813.336 589.687 813.336C587.831 813.336 586.407 813.944 585.415 815.16C584.455 816.376 583.975 818.168 583.975 820.536C583.975 822.808 584.439 824.472 585.367 825.528C586.295 826.584 587.607 827.112 589.303 827.112ZM618.516 809.256C622.228 809.256 625.044 810.408 626.964 812.712C628.884 815.016 629.844 818.184 629.844 822.216C629.844 826.696 629.204 830.36 627.924 833.208C626.644 836.024 624.66 838.28 621.972 839.976C619.316 841.64 615.732 843.032 611.22 844.152L610.02 840.264C614.468 839.08 617.86 837.512 620.196 835.56C622.532 833.576 623.86 830.92 624.18 827.592C622.132 829.928 619.652 831.112 616.74 831.144C614.948 831.144 613.332 830.712 611.892 829.848C610.452 828.984 609.316 827.752 608.484 826.152C607.684 824.552 607.284 822.68 607.284 820.536C607.284 818.2 607.764 816.184 608.724 814.488C609.716 812.792 611.06 811.496 612.756 810.6C614.452 809.704 616.372 809.256 618.516 809.256ZM618.084 827.112C619.332 827.08 620.452 826.776 621.444 826.2C622.436 825.624 623.38 824.792 624.276 823.704C624.34 819.96 623.924 817.304 623.028 815.736C622.164 814.136 620.644 813.336 618.468 813.336C616.612 813.336 615.188 813.944 614.196 815.16C613.236 816.376 612.756 818.168 612.756 820.536C612.756 822.808 613.22 824.472 614.148 825.528C615.076 826.584 616.388 827.112 618.084 827.112ZM647.297 809.256C651.009 809.256 653.825 810.408 655.745 812.712C657.665 815.016 658.625 818.184 658.625 822.216C658.625 826.696 657.985 830.36 656.705 833.208C655.425 836.024 653.441 838.28 650.753 839.976C648.097 841.64 644.513 843.032 640.001 844.152L638.801 840.264C643.249 839.08 646.641 837.512 648.977 835.56C651.313 833.576 652.641 830.92 652.961 827.592C650.913 829.928 648.433 831.112 645.521 831.144C643.729 831.144 642.113 830.712 640.673 829.848C639.233 828.984 638.097 827.752 637.265 826.152C636.465 824.552 636.065 822.68 636.065 820.536C636.065 818.2 636.545 816.184 637.505 814.488C638.497 812.792 639.841 811.496 641.537 810.6C643.233 809.704 645.153 809.256 647.297 809.256ZM646.865 827.112C648.113 827.08 649.233 826.776 650.225 826.2C651.217 825.624 652.161 824.792 653.057 823.704C653.121 819.96 652.705 817.304 651.809 815.736C650.945 814.136 649.425 813.336 647.249 813.336C645.393 813.336 643.969 813.944 642.977 815.16C642.017 816.376 641.537 818.168 641.537 820.536C641.537 822.808 642.001 824.472 642.929 825.528C643.857 826.584 645.169 827.112 646.865 827.112ZM573.29 891.64C573.29 893.624 572.778 895.368 571.754 896.872C570.762 898.376 569.306 899.544 567.386 900.376C565.498 901.208 563.242 901.624 560.618 901.624C555.498 901.624 551.434 900.152 548.426 897.208L551.498 893.8C553.994 896.104 557.034 897.256 560.618 897.256C562.602 897.256 564.234 896.792 565.514 895.864C566.826 894.936 567.482 893.624 567.482 891.928C567.482 890.936 567.274 890.104 566.858 889.432C566.474 888.76 565.802 888.168 564.842 887.656C563.882 887.112 562.506 886.568 560.714 886.024C557.034 884.936 554.33 883.64 552.602 882.136C550.874 880.632 550.01 878.648 550.01 876.184C550.01 874.424 550.49 872.872 551.45 871.528C552.442 870.152 553.802 869.096 555.53 868.36C557.258 867.592 559.21 867.208 561.386 867.208C565.834 867.208 569.53 868.536 572.474 871.192L569.546 874.504C567.274 872.552 564.666 871.576 561.722 871.576C559.93 871.576 558.474 871.944 557.354 872.68C556.266 873.416 555.722 874.472 555.722 875.848C555.722 876.712 555.946 877.448 556.394 878.056C556.874 878.664 557.658 879.224 558.746 879.736C559.866 880.216 561.434 880.76 563.45 881.368C566.65 882.328 569.082 883.56 570.746 885.064C572.442 886.568 573.29 888.76 573.29 891.64ZM602.695 884.44C602.695 889.688 601.607 893.864 599.431 896.968C597.287 900.072 594.183 901.624 590.119 901.624C586.055 901.624 582.935 900.104 580.759 897.064C578.615 893.992 577.543 889.8 577.543 884.488C577.543 879.24 578.615 875.048 580.759 871.912C582.935 868.776 586.055 867.208 590.119 867.208C594.183 867.208 597.287 868.76 599.431 871.864C601.607 874.936 602.695 879.128 602.695 884.44ZM596.983 884.44C596.983 880.088 596.439 876.856 595.351 874.744C594.263 872.632 592.519 871.576 590.119 871.576C587.719 871.576 585.975 872.632 584.887 874.744C583.799 876.856 583.255 880.104 583.255 884.488C583.255 888.808 583.799 892.024 584.887 894.136C586.007 896.248 587.751 897.304 590.119 897.304C592.519 897.304 594.263 896.248 595.351 894.136C596.439 892.024 596.983 888.792 596.983 884.44ZM612.9 893.032L610.596 901H604.884L615.444 867.88H622.356L632.916 901H627.012L624.708 893.032H612.9ZM623.556 888.712L618.804 872.2L614.052 888.712H623.556ZM660.353 878.296C660.353 882.008 659.201 884.76 656.897 886.552C654.593 888.312 651.441 889.192 647.441 889.192H643.409V901H637.889V867.88H647.057C651.313 867.88 654.593 868.76 656.897 870.52C659.201 872.248 660.353 874.84 660.353 878.296ZM654.545 878.296C654.545 874.136 652.177 872.056 647.441 872.056H643.409V884.968H647.489C649.729 884.968 651.457 884.456 652.673 883.432C653.921 882.408 654.545 880.696 654.545 878.296Z" fill="white"/>
<path d="M908.994 809.208C911.17 809.208 913.042 809.624 914.61 810.456C916.21 811.288 917.426 812.408 918.258 813.816C919.09 815.224 919.506 816.808 919.506 818.568C919.506 820.52 919.058 822.424 918.162 824.28C917.266 826.104 915.81 828.136 913.794 830.376C911.778 832.584 908.93 835.352 905.25 838.68H920.274L919.698 843H899.105V838.92C903.266 834.92 906.37 831.8 908.418 829.56C910.466 827.288 911.906 825.352 912.738 823.752C913.57 822.152 913.986 820.536 913.986 818.904C913.986 817.24 913.506 815.928 912.546 814.968C911.586 814.008 910.274 813.528 908.609 813.528C907.17 813.528 905.938 813.8 904.914 814.344C903.922 814.856 902.914 815.736 901.89 816.984L898.434 814.296C899.746 812.6 901.25 811.336 902.946 810.504C904.642 809.64 906.658 809.208 908.994 809.208ZM939.119 809.208C942.799 809.208 945.599 810.696 947.519 813.672C949.439 816.616 950.399 820.856 950.399 826.392C950.399 831.928 949.439 836.184 947.519 839.16C945.599 842.136 942.799 843.624 939.119 843.624C935.439 843.624 932.639 842.136 930.719 839.16C928.799 836.184 927.839 831.928 927.839 826.392C927.839 820.856 928.799 816.616 930.719 813.672C932.639 810.696 935.439 809.208 939.119 809.208ZM939.119 813.336C937.199 813.336 935.743 814.376 934.751 816.456C933.759 818.536 933.263 821.848 933.263 826.392C933.263 831 933.759 834.344 934.751 836.424C935.743 838.504 937.199 839.544 939.119 839.544C941.039 839.544 942.495 838.504 943.487 836.424C944.479 834.344 944.975 831 944.975 826.392C944.975 821.816 944.479 818.504 943.487 816.456C942.495 814.376 941.039 813.336 939.119 813.336ZM939.119 823.32C940.015 823.32 940.767 823.624 941.375 824.232C941.983 824.84 942.287 825.576 942.287 826.44C942.287 827.336 941.983 828.088 941.375 828.696C940.767 829.304 940.015 829.608 939.119 829.608C938.223 829.608 937.471 829.304 936.863 828.696C936.287 828.088 935.999 827.336 935.999 826.44C935.999 825.576 936.287 824.84 936.863 824.232C937.471 823.624 938.223 823.32 939.119 823.32ZM967.9 809.208C971.58 809.208 974.38 810.696 976.3 813.672C978.22 816.616 979.18 820.856 979.18 826.392C979.18 831.928 978.22 836.184 976.3 839.16C974.38 842.136 971.58 843.624 967.9 843.624C964.22 843.624 961.42 842.136 959.5 839.16C957.58 836.184 956.62 831.928 956.62 826.392C956.62 820.856 957.58 816.616 959.5 813.672C961.42 810.696 964.22 809.208 967.9 809.208ZM967.9 813.336C965.98 813.336 964.524 814.376 963.532 816.456C962.54 818.536 962.044 821.848 962.044 826.392C962.044 831 962.54 834.344 963.532 836.424C964.524 838.504 965.98 839.544 967.9 839.544C969.82 839.544 971.276 838.504 972.268 836.424C973.26 834.344 973.756 831 973.756 826.392C973.756 821.816 973.26 818.504 972.268 816.456C971.276 814.376 969.82 813.336 967.9 813.336ZM967.9 823.32C968.796 823.32 969.548 823.624 970.156 824.232C970.764 824.84 971.068 825.576 971.068 826.44C971.068 827.336 970.764 828.088 970.156 828.696C969.548 829.304 968.796 829.608 967.9 829.608C967.004 829.608 966.252 829.304 965.644 828.696C965.068 828.088 964.78 827.336 964.78 826.44C964.78 825.576 965.068 824.84 965.644 824.232C966.252 823.624 967.004 823.32 967.9 823.32ZM1005.47 813.912H992.745V823.128C994.441 822.264 996.249 821.832 998.169 821.832C999.929 821.832 1001.5 822.248 1002.87 823.08C1004.28 823.912 1005.37 825.128 1006.14 826.728C1006.94 828.296 1007.34 830.168 1007.34 832.344C1007.34 834.552 1006.84 836.52 1005.85 838.248C1004.86 839.944 1003.47 841.272 1001.67 842.232C999.881 843.16 997.801 843.624 995.433 843.624C991.369 843.624 987.993 842.184 985.305 839.304L988.473 836.28C990.361 838.36 992.601 839.4 995.193 839.4C997.241 839.4 998.841 838.792 999.993 837.576C1001.15 836.328 1001.72 834.584 1001.72 832.344C1001.72 830.04 1001.23 828.376 1000.23 827.352C999.273 826.296 997.961 825.768 996.297 825.768C995.529 825.768 994.777 825.864 994.041 826.056C993.337 826.216 992.521 826.488 991.593 826.872H987.609V809.88H1006.19L1005.47 813.912ZM862.759 889.624C862.759 893.112 861.751 895.992 859.735 898.264C857.751 900.504 854.727 901.624 850.663 901.624C847.175 901.624 844.039 900.6 841.255 898.552L843.511 895.048C844.759 895.848 845.943 896.424 847.063 896.776C848.183 897.096 849.319 897.256 850.471 897.256C852.551 897.256 854.183 896.584 855.367 895.24C856.583 893.896 857.191 891.992 857.191 889.528V872.152H847.255V867.88H862.759V889.624ZM893.508 891.64C893.508 893.624 892.996 895.368 891.972 896.872C890.98 898.376 889.524 899.544 887.604 900.376C885.716 901.208 883.46 901.624 880.836 901.624C875.716 901.624 871.652 900.152 868.644 897.208L871.716 893.8C874.212 896.104 877.252 897.256 880.836 897.256C882.82 897.256 884.452 896.792 885.732 895.864C887.044 894.936 887.7 893.624 887.7 891.928C887.7 890.936 887.492 890.104 887.076 889.432C886.692 888.76 886.02 888.168 885.06 887.656C884.1 887.112 882.724 886.568 880.932 886.024C877.252 884.936 874.548 883.64 872.82 882.136C871.092 880.632 870.228 878.648 870.228 876.184C870.228 874.424 870.708 872.872 871.668 871.528C872.66 870.152 874.02 869.096 875.748 868.36C877.476 867.592 879.428 867.208 881.604 867.208C886.052 867.208 889.748 868.536 892.692 871.192L889.764 874.504C887.492 872.552 884.884 871.576 881.94 871.576C880.148 871.576 878.692 871.944 877.572 872.68C876.484 873.416 875.94 874.472 875.94 875.848C875.94 876.712 876.164 877.448 876.612 878.056C877.092 878.664 877.876 879.224 878.964 879.736C880.084 880.216 881.652 880.76 883.668 881.368C886.868 882.328 889.3 883.56 890.964 885.064C892.66 886.568 893.508 888.76 893.508 891.64ZM922.914 884.44C922.914 889.688 921.826 893.864 919.65 896.968C917.506 900.072 914.402 901.624 910.338 901.624C906.274 901.624 903.154 900.104 900.978 897.064C898.834 893.992 897.762 889.8 897.762 884.488C897.762 879.24 898.834 875.048 900.978 871.912C903.154 868.776 906.274 867.208 910.338 867.208C914.402 867.208 917.506 868.76 919.65 871.864C921.826 874.936 922.914 879.128 922.914 884.44ZM917.202 884.44C917.202 880.088 916.658 876.856 915.57 874.744C914.482 872.632 912.738 871.576 910.338 871.576C907.938 871.576 906.194 872.632 905.106 874.744C904.018 876.856 903.474 880.104 903.474 884.488C903.474 888.808 904.018 892.024 905.106 894.136C906.226 896.248 907.97 897.304 910.338 897.304C912.738 897.304 914.482 896.248 915.57 894.136C916.658 892.024 917.202 888.792 917.202 884.44ZM932.303 872.824C932.815 878.072 933.071 882.456 933.071 885.976V901H928.127V867.88H935.375L945.935 896.056C945.711 893.688 945.519 891.56 945.359 889.672C945.231 887.752 945.167 885.512 945.167 882.952V867.88H950.111V901H942.863L932.303 872.824ZM959.212 883.768H976.588V888.184H959.212V883.768ZM1008.49 877.48C1008.49 879.784 1007.8 881.704 1006.43 883.24C1005.05 884.776 1003.23 885.896 1000.95 886.6L1010.36 901H1003.88L995.529 887.368H991.929V901H986.361V867.88H995.577C1004.19 867.88 1008.49 871.08 1008.49 877.48ZM1002.68 877.48C1002.68 875.56 1002.12 874.168 1001 873.304C999.913 872.44 998.217 872.008 995.913 872.008H991.929V883.288H996.057C998.233 883.288 999.881 882.824 1001 881.896C1002.12 880.968 1002.68 879.496 1002.68 877.48ZM1038.13 878.296C1038.13 882.008 1036.98 884.76 1034.68 886.552C1032.37 888.312 1029.22 889.192 1025.22 889.192H1021.19V901H1015.67V867.88H1024.84C1029.09 867.88 1032.37 868.76 1034.68 870.52C1036.98 872.248 1038.13 874.84 1038.13 878.296ZM1032.33 878.296C1032.33 874.136 1029.96 872.056 1025.22 872.056H1021.19V884.968H1025.27C1027.51 884.968 1029.24 884.456 1030.45 883.432C1031.7 882.408 1032.33 880.696 1032.33 878.296ZM1057.03 867.208C1059.2 867.208 1061.06 867.48 1062.6 868.024C1064.13 868.568 1065.6 869.416 1067.01 870.568L1064.13 874.024C1062.12 872.392 1059.83 871.576 1057.27 871.576C1054.58 871.576 1052.39 872.616 1050.69 874.696C1049 876.744 1048.15 879.976 1048.15 884.392C1048.15 888.744 1048.98 891.96 1050.64 894.04C1052.31 896.088 1054.53 897.112 1057.32 897.112C1058.92 897.112 1060.28 896.872 1061.4 896.392C1062.55 895.88 1063.68 895.176 1064.8 894.28L1067.49 897.688C1064.8 900.312 1061.35 901.624 1057.12 901.624C1054.28 901.624 1051.73 900.968 1049.49 899.656C1047.25 898.312 1045.49 896.344 1044.21 893.752C1042.96 891.16 1042.34 888.04 1042.34 884.392C1042.34 880.808 1042.98 877.72 1044.26 875.128C1045.57 872.536 1047.35 870.568 1049.59 869.224C1051.83 867.88 1054.31 867.208 1057.03 867.208Z" fill="white"/>
<path d="M1489.99 809.208C1492.17 809.208 1494.04 809.624 1495.61 810.456C1497.21 811.288 1498.43 812.408 1499.26 813.816C1500.09 815.224 1500.51 816.808 1500.51 818.568C1500.51 820.52 1500.06 822.424 1499.16 824.28C1498.27 826.104 1496.81 828.136 1494.79 830.376C1492.78 832.584 1489.93 835.352 1486.25 838.68H1501.27L1500.7 843H1480.11V838.92C1484.27 834.92 1487.37 831.8 1489.42 829.56C1491.47 827.288 1492.91 825.352 1493.74 823.752C1494.57 822.152 1494.99 820.536 1494.99 818.904C1494.99 817.24 1494.51 815.928 1493.55 814.968C1492.59 814.008 1491.27 813.528 1489.61 813.528C1488.17 813.528 1486.94 813.8 1485.91 814.344C1484.92 814.856 1483.91 815.736 1482.89 816.984L1479.43 814.296C1480.75 812.6 1482.25 811.336 1483.95 810.504C1485.64 809.64 1487.66 809.208 1489.99 809.208ZM1520.12 809.208C1523.8 809.208 1526.6 810.696 1528.52 813.672C1530.44 816.616 1531.4 820.856 1531.4 826.392C1531.4 831.928 1530.44 836.184 1528.52 839.16C1526.6 842.136 1523.8 843.624 1520.12 843.624C1516.44 843.624 1513.64 842.136 1511.72 839.16C1509.8 836.184 1508.84 831.928 1508.84 826.392C1508.84 820.856 1509.8 816.616 1511.72 813.672C1513.64 810.696 1516.44 809.208 1520.12 809.208ZM1520.12 813.336C1518.2 813.336 1516.74 814.376 1515.75 816.456C1514.76 818.536 1514.26 821.848 1514.26 826.392C1514.26 831 1514.76 834.344 1515.75 836.424C1516.74 838.504 1518.2 839.544 1520.12 839.544C1522.04 839.544 1523.49 838.504 1524.49 836.424C1525.48 834.344 1525.97 831 1525.97 826.392C1525.97 821.816 1525.48 818.504 1524.49 816.456C1523.49 814.376 1522.04 813.336 1520.12 813.336ZM1520.12 823.32C1521.01 823.32 1521.77 823.624 1522.37 824.232C1522.98 824.84 1523.29 825.576 1523.29 826.44C1523.29 827.336 1522.98 828.088 1522.37 828.696C1521.77 829.304 1521.01 829.608 1520.12 829.608C1519.22 829.608 1518.47 829.304 1517.86 828.696C1517.29 828.088 1517 827.336 1517 826.44C1517 825.576 1517.29 824.84 1517.86 824.232C1518.47 823.624 1519.22 823.32 1520.12 823.32ZM1559.94 838.776V843H1539.92V838.776H1547.99V815.4L1540.69 819.864L1538.39 816.12L1548.56 809.88H1553.32V838.776H1559.94ZM1586.47 813.912H1573.75V823.128C1575.44 822.264 1577.25 821.832 1579.17 821.832C1580.93 821.832 1582.5 822.248 1583.87 823.08C1585.28 823.912 1586.37 825.128 1587.14 826.728C1587.94 828.296 1588.34 830.168 1588.34 832.344C1588.34 834.552 1587.84 836.52 1586.85 838.248C1585.86 839.944 1584.47 841.272 1582.67 842.232C1580.88 843.16 1578.8 843.624 1576.43 843.624C1572.37 843.624 1568.99 842.184 1566.31 839.304L1569.47 836.28C1571.36 838.36 1573.6 839.4 1576.19 839.4C1578.24 839.4 1579.84 838.792 1580.99 837.576C1582.15 836.328 1582.72 834.584 1582.72 832.344C1582.72 830.04 1582.23 828.376 1581.23 827.352C1580.27 826.296 1578.96 825.768 1577.3 825.768C1576.53 825.768 1575.78 825.864 1575.04 826.056C1574.34 826.216 1573.52 826.488 1572.59 826.872H1568.61V809.88H1587.19L1586.47 813.912ZM1449.03 901.624C1444.74 901.624 1441.41 900.168 1439.05 897.256C1436.71 894.312 1435.54 890.024 1435.54 884.392C1435.54 880.744 1436.18 877.624 1437.46 875.032C1438.77 872.44 1440.52 870.488 1442.69 869.176C1444.9 867.864 1447.33 867.208 1449.99 867.208C1452.13 867.208 1453.96 867.528 1455.46 868.168C1457 868.776 1458.45 869.736 1459.83 871.048L1456.71 874.264C1455.69 873.336 1454.65 872.664 1453.59 872.248C1452.57 871.8 1451.41 871.576 1450.13 871.576C1447.57 871.576 1445.46 872.616 1443.8 874.696C1442.17 876.744 1441.35 879.976 1441.35 884.392C1441.35 888.936 1441.99 892.232 1443.27 894.28C1444.58 896.296 1446.58 897.304 1449.27 897.304C1451.32 897.304 1453.14 896.84 1454.74 895.912V886.792H1449.13L1448.55 882.52H1460.17V898.6C1458.47 899.56 1456.73 900.312 1454.93 900.856C1453.17 901.368 1451.21 901.624 1449.03 901.624ZM1488.75 877.48C1488.75 879.784 1488.07 881.704 1486.69 883.24C1485.31 884.776 1483.49 885.896 1481.22 886.6L1490.63 901H1484.15L1475.79 887.368H1472.19V901H1466.63V867.88H1475.84C1484.45 867.88 1488.75 871.08 1488.75 877.48ZM1482.95 877.48C1482.95 875.56 1482.39 874.168 1481.27 873.304C1480.18 872.44 1478.48 872.008 1476.18 872.008H1472.19V883.288H1476.32C1478.5 883.288 1480.15 882.824 1481.27 881.896C1482.39 880.968 1482.95 879.496 1482.95 877.48ZM1499.73 893.032L1497.42 901H1491.71L1502.27 867.88H1509.18L1519.74 901H1513.84L1511.54 893.032H1499.73ZM1510.38 888.712L1505.63 872.2L1500.88 888.712H1510.38ZM1547.18 878.296C1547.18 882.008 1546.03 884.76 1543.73 886.552C1541.42 888.312 1538.27 889.192 1534.27 889.192H1530.24V901H1524.72V867.88H1533.89C1538.14 867.88 1541.42 868.76 1543.73 870.52C1546.03 872.248 1547.18 874.84 1547.18 878.296ZM1541.37 878.296C1541.37 874.136 1539.01 872.056 1534.27 872.056H1530.24V884.968H1534.32C1536.56 884.968 1538.29 884.456 1539.5 883.432C1540.75 882.408 1541.37 880.696 1541.37 878.296ZM1568.71 885.928H1557.87V901H1552.3V867.88H1557.87V881.368H1568.71V867.88H1574.28V901H1568.71V885.928ZM1604.65 884.44C1604.65 888.056 1604.1 891.144 1603.02 893.704C1601.96 896.232 1600.2 898.152 1597.74 899.464C1600.2 899.944 1602.12 900.76 1603.5 901.912C1604.9 903.096 1606.02 904.92 1606.86 907.384L1601.72 909.304C1600.98 907.48 1600.2 906.008 1599.37 904.888C1598.54 903.8 1597.5 902.968 1596.25 902.392C1595 901.816 1593.45 901.528 1591.59 901.528C1587.72 901.528 1584.74 900.024 1582.66 897.016C1580.62 893.976 1579.59 889.8 1579.59 884.488C1579.59 879.208 1580.66 875.016 1582.81 871.912C1584.98 868.776 1588.09 867.208 1592.12 867.208C1596.18 867.208 1599.29 868.744 1601.43 871.816C1603.58 874.888 1604.65 879.096 1604.65 884.44ZM1598.84 884.44C1598.84 880.056 1598.31 876.824 1597.26 874.744C1596.23 872.632 1594.52 871.576 1592.12 871.576C1589.72 871.576 1587.99 872.632 1586.94 874.744C1585.91 876.856 1585.4 880.104 1585.4 884.488C1585.4 888.84 1585.93 892.072 1586.98 894.184C1588.07 896.264 1589.78 897.304 1592.12 897.304C1594.52 897.304 1596.23 896.264 1597.26 894.184C1598.31 892.072 1598.84 888.824 1598.84 884.44ZM1612.21 867.88H1617.73V896.344H1632.61L1631.99 901H1612.21V867.88Z" fill="white"/>
<defs>
<linearGradient id="paint0_linear" x1="-1.23981e-05" y1="19.8" x2="2352.48" y2="950.63" gradientUnits="userSpaceOnUse">
<stop offset="0.303454" stop-color="#5D54A4"/>
<stop offset="0.94916" stop-color="#D789D7" stop-opacity="0.8"/>
</linearGradient>
</defs>
</svg>
