<svg xmlns="http://www.w3.org/2000/svg" xmlns:xlink="http://www.w3.org/1999/xlink" viewBox="0 0 81 30" fill="#fff" fill-rule="evenodd" stroke="#000" stroke-linecap="round" stroke-linejoin="round"><use xlink:href="#A" x=".5" y=".5"/><symbol id="A" overflow="visible"><path d="M29.8 12.296h2.258c.7 0 1.26-.094 1.674-.28s.733-.455.954-.804.37-.78.448-1.29.117-1.104.117-1.777-.04-1.266-.117-1.777-.24-.948-.487-1.31-.6-.63-1.032-.804-1.025-.262-1.752-.262H29.8zM25.83.246h6.385c4.672 0 7.008 2.717 7.008 8.152 0 1.612-.253 2.997-.76 4.154s-1.395 2.087-2.667 2.79l4.282 12.676h-4.205l-3.76-12.063H29.8v12.063h-3.97zm16.584 0h5.956c1.1 0 2.05.143 2.88.43s1.583.793 2.258 1.52a5.95 5.95 0 0 1 1.402 2.555c.26.975.39 2.295.39 3.96a17.31 17.31 0 0 1-.24 2.968 4.66 4.66 0 0 1-2.414 3.415c-1.132.643-2.757.874-4.236.874h-2.024v12.05h-3.97zm3.97 12.05h1.908c.805 0 1.427-.103 1.87-.31s.766-.486.973-.84.33-.784.37-1.287a21.44 21.44 0 0 0 .058-1.682 22.16 22.16 0 0 0-.058-1.63c-.038-.515-.156-.96-.35-1.34s-.5-.675-.915-.892-1.012-.326-1.79-.326h-2.063zm24.487 9.52c0 .858-.162 1.677-.487 2.457s-.772 1.463-1.343 2.048a6.64 6.64 0 0 1-2.005 1.404 5.86 5.86 0 0 1-2.472.527c-.753 0-1.518-.104-2.297-.312a5.57 5.57 0 0 1-2.102-1.073c-.623-.507-1.135-1.177-1.538-2.01s-.603-1.885-.603-3.16v-15.3a6.82 6.82 0 0 1 .467-2.535 5.96 5.96 0 0 1 1.324-2.028c.571-.572 1.252-1.02 2.044-1.346S63.527 0 64.487 0a6.5 6.5 0 0 1 2.53.488c.778.325 1.453.78 2.024 1.365a6.27 6.27 0 0 1 1.343 2.106c.323.819.487 1.7.487 2.672v1.56h-3.97V6.865c0-.78-.22-1.456-.662-2.028a2.14 2.14 0 0 0-1.791-.858c-.986 0-1.642.306-1.966.917s-.487 1.385-.487 2.32v14.198c0 .806.175 1.482.526 2.028s.98.82 1.888.82a2.87 2.87 0 0 0 .837-.137c.297-.091.57-.24.818-.45s.448-.494.603-.858.234-.82.234-1.365v-1.365h3.97zm7.78-7.72c0-1.014-.82-1.836-1.83-1.836h-9.917v3.67h8.086v4.095h-1.246l3.098 4.377 3.098-4.377h-1.288zm-69.64 1.87v5.497c0 1.144.195 2.14.584 2.984s.902 1.547 1.538 2.106a6.64 6.64 0 0 0 2.14 1.268 7 7 0 0 0 2.394.429 7 7 0 0 0 2.394-.429c.792-.286 1.505-.71 2.14-1.268s1.148-1.26 1.538-2.106.584-1.84.584-2.984v-9.16l-7.115-.01-.01 3.673h3.153v5.498c0 .962-.266 1.67-.798 2.126a2.81 2.81 0 0 1-1.888.683 2.81 2.81 0 0 1-1.888-.683c-.532-.455-.798-1.164-.798-2.126V6.799c0-.962.266-1.67.798-2.126a2.81 2.81 0 0 1 1.888-.683 2.81 2.81 0 0 1 1.888.683c.532.455.798 1.164.798 2.126v1.404h3.97V6.799c0-1.118-.195-2.106-.584-2.964s-.902-1.567-1.538-2.126a6.64 6.64 0 0 0-2.14-1.268 7 7 0 0 0-2.394-.429 7 7 0 0 0-2.394.429c-.792.286-1.505.71-2.14 1.268S9.983 2.977 9.593 3.835s-.584 1.846-.584 2.964v5.497H4.95V8.202h1.246L3.098 3.825 0 8.202h1.288v5.93c0 1.014.82 1.836 1.83 1.836h5.893z" stroke="none" fill="#2da6b0"/></symbol></svg>